<?xml version="1.0" encoding="utf-8"?>
<svg width="18" height="18" viewBox="0 0 24 24" fill="none" xmlns="http://www.w3.org/2000/svg">
    <path d="M21 12.79C20.8427 14.4922 20.2039 16.1144 19.1583 17.4668C18.1127 18.8192 16.7035 19.8458 15.0957 20.4265C13.4879 21.0073 11.748 21.1181 10.0795 20.7461C8.41104 20.3741 6.88299 19.5345 5.67423 18.3258C4.46548 17.117 3.62592 15.589 3.2539 13.9205C2.88188 12.252 2.99268 10.5121 3.57346 8.9043C4.15424 7.29651 5.18082 5.88733 6.53323 4.84171C7.88563 3.79609 9.50779 3.15732 11.21 3C10.2134 4.34827 9.73384 6.00945 9.85853 7.68141C9.98323 9.35338 10.7039 10.9251 11.8894 12.1106C13.0749 13.2961 14.6466 14.0168 16.3186 14.1415C17.9906 14.2662 19.6517 13.7866 21 12.79Z" stroke="currentColor" stroke-width="1.5" stroke-linecap="round" stroke-linejoin="round" fill="none"/>
</svg>