<?xml version="1.0" encoding="utf-8"?><!-- Uploaded to: SVG Repo, www.svgrepo.com, Generator: SVG Repo Mixer Tools -->
<svg width="18px" height="18px" viewBox="0 0 24 24" fill="none" xmlns="http://www.w3.org/2000/svg">
    <path d="M12 15C13.6569 15 15 13.6569 15 12C15 10.3431 13.6569 9 12 9C10.3431 9 9 10.3431 9 12C9 13.6569 10.3431 15 12 15Z" stroke="currentColor" stroke-width="1.5" fill="none"/>
    <path d="M19.6224 10.3954L18.5247 7.7448L20 6L18 4L16.2552 5.47529L13.6046 4.3776L12 2L10.3954 4.3776L7.7448 5.47529L6 4L4 6L5.47529 7.7448L4.3776 10.3954L2 12L4.3776 13.6046L5.47529 16.2552L4 18L6 20L7.7448 18.5247L10.3954 19.6224L12 22L13.6046 19.6224L16.2552 18.5247L18 20L20 18L18.5247 16.2552L19.6224 13.6046L22 12L19.6224 10.3954Z" stroke="currentColor" stroke-width="1.5" fill="none"/>
</svg>